  0
SECTION
  2
BLOCKS
  0
ENDSEC
  0
SECTION
  2
ENTITIES
  0
LINE
  8
0
 10
291
 20
325.097
 11
290.619
 21
327.01
  0
LINE
  8
0
 10
290.619
 20
327.01
 11
289.536
 21
328.632
  0
LINE
  8
0
 10
289.536
 20
328.632
 11
287.913
 21
329.716
  0
LINE
  8
0
 10
287.913
 20
329.716
 11
286
 21
330.097
  0
LINE
  8
0
 10
286
 20
330.097
 11
11
 21
330.097
  0
LINE
  8
0
 10
11
 20
330.097
 11
9.08658
 21
329.716
  0
LINE
  8
0
 10
9.08658
 20
329.716
 11
7.46446
 21
328.632
  0
LINE
  8
0
 10
7.46446
 20
328.632
 11
6.3806
 21
327.01
  0
LINE
  8
0
 10
6.3806
 20
327.01
 11
6
 21
325.097
  0
LINE
  8
0
 10
6
 20
325.097
 11
6
 21
211
  0
LINE
  8
0
 10
6
 20
211
 11
291
 21
211
  0
LINE
  8
0
 10
291
 20
211
 11
291
 21
325.097
  0
LINE
  8
0
 10
293.913
 20
0.3806
 11
295.536
 21
1.46446
  0
LINE
  8
0
 10
295.536
 20
1.46446
 11
296.619
 21
3.08658
  0
LINE
  8
0
 10
296.619
 20
3.08658
 11
297
 21
5
  0
LINE
  8
0
 10
297
 20
5
 11
297
 21
205
  0
LINE
  8
0
 10
297
 20
205
 11
296.619
 21
206.913
  0
LINE
  8
0
 10
296.619
 20
206.913
 11
295.536
 21
208.536
  0
LINE
  8
0
 10
295.536
 20
208.536
 11
293.913
 21
209.619
  0
LINE
  8
0
 10
293.913
 20
209.619
 11
292
 21
210
  0
LINE
  8
0
 10
292
 20
210
 11
5
 21
210
  0
LINE
  8
0
 10
5
 20
210
 11
3.08658
 21
209.619
  0
LINE
  8
0
 10
3.08658
 20
209.619
 11
1.46446
 21
208.536
  0
LINE
  8
0
 10
1.46446
 20
208.536
 11
0.3806
 21
206.913
  0
LINE
  8
0
 10
0.3806
 20
206.913
 11
0
 21
205
  0
LINE
  8
0
 10
0
 20
205
 11
0
 21
5
  0
LINE
  8
0
 10
0
 20
5
 11
0.3806
 21
3.08658
  0
LINE
  8
0
 10
0.3806
 20
3.08658
 11
1.46446
 21
1.46446
  0
LINE
  8
0
 10
1.46446
 20
1.46446
 11
3.08658
 21
0.3806
  0
LINE
  8
0
 10
3.08658
 20
0.3806
 11
5
 21
0
  0
LINE
  8
0
 10
5
 20
0
 11
292
 21
0
  0
LINE
  8
0
 10
292
 20
0
 11
293.913
 21
0.3806
  0
LINE
  8
0
 10
6
 20
21
 11
6
 21
27
  0
LINE
  8
0
 10
6
 20
27
 11
291
 21
27
  0
LINE
  8
0
 10
291
 20
27
 11
291
 21
21
  0
LINE
  8
0
 10
291
 20
21
 11
6
 21
21
  0
ENDSEC
  0
SECTION
  2
OBJECTS
  0
DICTIONARY
  0
ENDSEC
  0
EOF
