<?xml version="1.0" standalone="no"?>
<!DOCTYPE svg PUBLIC "-//W3C//DTD SVG 1.1//EN" "http://www.w3.org/Graphics/SVG/1.1/DTD/svg11.dtd">
<svg width="125mm" height="127mm" viewBox="0 -127 125 127" xmlns="http://www.w3.org/2000/svg" version="1.1">
<title>OpenSCAD Model</title>
<path d="
M 119,-121.37 L 118.619,-123.284 L 117.536,-124.906 L 115.913,-125.99 L 114,-126.37 L 11,-126.37
 L 9.08658,-125.99 L 7.46446,-124.906 L 6.3806,-123.284 L 6,-121.37 L 6,-81 L 119,-81
 z
M 121.913,-0.3806 L 123.536,-1.46446 L 124.619,-3.08658 L 125,-5 L 125,-75 L 124.619,-76.9134
 L 123.536,-78.5355 L 121.913,-79.6194 L 120,-80 L 5,-80 L 3.08658,-79.6194 L 1.46446,-78.5355
 L 0.3806,-76.9134 L 0,-75 L 0,-5 L 0.3806,-3.08658 L 1.46446,-1.46446 L 3.08658,-0.3806
 L 5,-0 L 120,-0 z
M 6,-8 L 6,-14 L 119,-14 L 119,-8 z
" stroke="black" fill="lightgray" stroke-width="0.5"/>
</svg>
