<?xml version="1.0" standalone="no"?>
<!DOCTYPE svg PUBLIC "-//W3C//DTD SVG 1.1//EN" "http://www.w3.org/Graphics/SVG/1.1/DTD/svg11.dtd">
<svg width="300mm" height="205mm" viewBox="0 -205 300 205" xmlns="http://www.w3.org/2000/svg" version="1.1">
<title>OpenSCAD Model</title>
<path d="
M 294,-199.727 L 293.619,-201.64 L 292.536,-203.262 L 290.913,-204.346 L 289,-204.727 L 11,-204.727
 L 9.08658,-204.346 L 7.46446,-203.262 L 6.3806,-201.64 L 6,-199.727 L 6,-131 L 294,-131
 z
M 296.913,-0.3806 L 298.536,-1.46446 L 299.619,-3.08658 L 300,-5 L 300,-125 L 299.619,-126.913
 L 298.536,-128.536 L 296.913,-129.619 L 295,-130 L 5,-130 L 3.08658,-129.619 L 1.46446,-128.536
 L 0.3806,-126.913 L 0,-125 L 0,-5 L 0.3806,-3.08658 L 1.46446,-1.46446 L 3.08658,-0.3806
 L 5,-0 L 295,-0 z
M 6,-13 L 6,-19 L 294,-19 L 294,-13 z
" stroke="black" fill="lightgray" stroke-width="0.5"/>
</svg>
