<?xml version="1.0" standalone="no"?>
<!DOCTYPE svg PUBLIC "-//W3C//DTD SVG 1.1//EN" "http://www.w3.org/Graphics/SVG/1.1/DTD/svg11.dtd">
<svg width="130mm" height="472mm" viewBox="0 -472 130 472" xmlns="http://www.w3.org/2000/svg" version="1.1">
<title>OpenSCAD Model</title>
<path d="
M 124,-466.138 L 123.619,-468.052 L 122.536,-469.674 L 120.913,-470.758 L 119,-471.138 L 11,-471.138
 L 9.08658,-470.758 L 7.46446,-469.674 L 6.3806,-468.052 L 6,-466.138 L 6,-301 L 124,-301
 z
M 126.913,-0.3806 L 128.536,-1.46446 L 129.619,-3.08658 L 130,-5 L 130,-295 L 129.619,-296.913
 L 128.536,-298.536 L 126.913,-299.619 L 125,-300 L 5,-300 L 3.08658,-299.619 L 1.46446,-298.536
 L 0.3806,-296.913 L 0,-295 L 0,-5 L 0.3806,-3.08658 L 1.46446,-1.46446 L 3.08658,-0.3806
 L 5,-0 L 125,-0 z
M 6,-30 L 6,-36 L 124,-36 L 124,-30 z
" stroke="black" fill="lightgray" stroke-width="0.5"/>
</svg>
