<?xml version="1.0" standalone="no"?>
<!DOCTYPE svg PUBLIC "-//W3C//DTD SVG 1.1//EN" "http://www.w3.org/Graphics/SVG/1.1/DTD/svg11.dtd">
<svg width="80mm" height="197mm" viewBox="0 -197 80 197" xmlns="http://www.w3.org/2000/svg" version="1.1">
<title>OpenSCAD Model</title>
<path d="
M 74,-191.891 L 73.6194,-193.804 L 72.5355,-195.427 L 70.9134,-196.51 L 69,-196.891 L 11,-196.891
 L 9.08658,-196.51 L 7.46446,-195.427 L 6.3806,-193.804 L 6,-191.891 L 6,-126 L 74,-126
 z
M 76.9134,-0.3806 L 78.5355,-1.46446 L 79.6194,-3.08658 L 80,-5 L 80,-120 L 79.6194,-121.913
 L 78.5355,-123.536 L 76.9134,-124.619 L 75,-125 L 5,-125 L 3.08658,-124.619 L 1.46446,-123.536
 L 0.3806,-121.913 L 0,-120 L 0,-5 L 0.3806,-3.08658 L 1.46446,-1.46446 L 3.08658,-0.3806
 L 5,-0 L 75,-0 z
M 6,-12.5 L 6,-18.5 L 74,-18.5 L 74,-12.5 z
" stroke="black" fill="lightgray" stroke-width="0.5"/>
</svg>
