  0
SECTION
  2
BLOCKS
  0
ENDSEC
  0
SECTION
  2
ENTITIES
  0
LINE
  8
0
 10
124
 20
466.138
 11
123.619
 21
468.052
  0
LINE
  8
0
 10
123.619
 20
468.052
 11
122.536
 21
469.674
  0
LINE
  8
0
 10
122.536
 20
469.674
 11
120.913
 21
470.758
  0
LINE
  8
0
 10
120.913
 20
470.758
 11
119
 21
471.138
  0
LINE
  8
0
 10
119
 20
471.138
 11
11
 21
471.138
  0
LINE
  8
0
 10
11
 20
471.138
 11
9.08658
 21
470.758
  0
LINE
  8
0
 10
9.08658
 20
470.758
 11
7.46446
 21
469.674
  0
LINE
  8
0
 10
7.46446
 20
469.674
 11
6.3806
 21
468.052
  0
LINE
  8
0
 10
6.3806
 20
468.052
 11
6
 21
466.138
  0
LINE
  8
0
 10
6
 20
466.138
 11
6
 21
301
  0
LINE
  8
0
 10
6
 20
301
 11
124
 21
301
  0
LINE
  8
0
 10
124
 20
301
 11
124
 21
466.138
  0
LINE
  8
0
 10
126.913
 20
0.3806
 11
128.536
 21
1.46446
  0
LINE
  8
0
 10
128.536
 20
1.46446
 11
129.619
 21
3.08658
  0
LINE
  8
0
 10
129.619
 20
3.08658
 11
130
 21
5
  0
LINE
  8
0
 10
130
 20
5
 11
130
 21
295
  0
LINE
  8
0
 10
130
 20
295
 11
129.619
 21
296.913
  0
LINE
  8
0
 10
129.619
 20
296.913
 11
128.536
 21
298.536
  0
LINE
  8
0
 10
128.536
 20
298.536
 11
126.913
 21
299.619
  0
LINE
  8
0
 10
126.913
 20
299.619
 11
125
 21
300
  0
LINE
  8
0
 10
125
 20
300
 11
5
 21
300
  0
LINE
  8
0
 10
5
 20
300
 11
3.08658
 21
299.619
  0
LINE
  8
0
 10
3.08658
 20
299.619
 11
1.46446
 21
298.536
  0
LINE
  8
0
 10
1.46446
 20
298.536
 11
0.3806
 21
296.913
  0
LINE
  8
0
 10
0.3806
 20
296.913
 11
0
 21
295
  0
LINE
  8
0
 10
0
 20
295
 11
0
 21
5
  0
LINE
  8
0
 10
0
 20
5
 11
0.3806
 21
3.08658
  0
LINE
  8
0
 10
0.3806
 20
3.08658
 11
1.46446
 21
1.46446
  0
LINE
  8
0
 10
1.46446
 20
1.46446
 11
3.08658
 21
0.3806
  0
LINE
  8
0
 10
3.08658
 20
0.3806
 11
5
 21
0
  0
LINE
  8
0
 10
5
 20
0
 11
125
 21
0
  0
LINE
  8
0
 10
125
 20
0
 11
126.913
 21
0.3806
  0
LINE
  8
0
 10
6
 20
30
 11
6
 21
36
  0
LINE
  8
0
 10
6
 20
36
 11
124
 21
36
  0
LINE
  8
0
 10
124
 20
36
 11
124
 21
30
  0
LINE
  8
0
 10
124
 20
30
 11
6
 21
30
  0
ENDSEC
  0
SECTION
  2
OBJECTS
  0
DICTIONARY
  0
ENDSEC
  0
EOF
