  0
SECTION
  2
BLOCKS
  0
ENDSEC
  0
SECTION
  2
ENTITIES
  0
LINE
  8
0
 10
74
 20
191.891
 11
73.6194
 21
193.804
  0
LINE
  8
0
 10
73.6194
 20
193.804
 11
72.5355
 21
195.427
  0
LINE
  8
0
 10
72.5355
 20
195.427
 11
70.9134
 21
196.51
  0
LINE
  8
0
 10
70.9134
 20
196.51
 11
69
 21
196.891
  0
LINE
  8
0
 10
69
 20
196.891
 11
11
 21
196.891
  0
LINE
  8
0
 10
11
 20
196.891
 11
9.08658
 21
196.51
  0
LINE
  8
0
 10
9.08658
 20
196.51
 11
7.46446
 21
195.427
  0
LINE
  8
0
 10
7.46446
 20
195.427
 11
6.3806
 21
193.804
  0
LINE
  8
0
 10
6.3806
 20
193.804
 11
6
 21
191.891
  0
LINE
  8
0
 10
6
 20
191.891
 11
6
 21
126
  0
LINE
  8
0
 10
6
 20
126
 11
74
 21
126
  0
LINE
  8
0
 10
74
 20
126
 11
74
 21
191.891
  0
LINE
  8
0
 10
76.9134
 20
0.3806
 11
78.5355
 21
1.46446
  0
LINE
  8
0
 10
78.5355
 20
1.46446
 11
79.6194
 21
3.08658
  0
LINE
  8
0
 10
79.6194
 20
3.08658
 11
80
 21
5
  0
LINE
  8
0
 10
80
 20
5
 11
80
 21
120
  0
LINE
  8
0
 10
80
 20
120
 11
79.6194
 21
121.913
  0
LINE
  8
0
 10
79.6194
 20
121.913
 11
78.5355
 21
123.536
  0
LINE
  8
0
 10
78.5355
 20
123.536
 11
76.9134
 21
124.619
  0
LINE
  8
0
 10
76.9134
 20
124.619
 11
75
 21
125
  0
LINE
  8
0
 10
75
 20
125
 11
5
 21
125
  0
LINE
  8
0
 10
5
 20
125
 11
3.08658
 21
124.619
  0
LINE
  8
0
 10
3.08658
 20
124.619
 11
1.46446
 21
123.536
  0
LINE
  8
0
 10
1.46446
 20
123.536
 11
0.3806
 21
121.913
  0
LINE
  8
0
 10
0.3806
 20
121.913
 11
0
 21
120
  0
LINE
  8
0
 10
0
 20
120
 11
0
 21
5
  0
LINE
  8
0
 10
0
 20
5
 11
0.3806
 21
3.08658
  0
LINE
  8
0
 10
0.3806
 20
3.08658
 11
1.46446
 21
1.46446
  0
LINE
  8
0
 10
1.46446
 20
1.46446
 11
3.08658
 21
0.3806
  0
LINE
  8
0
 10
3.08658
 20
0.3806
 11
5
 21
0
  0
LINE
  8
0
 10
5
 20
0
 11
75
 21
0
  0
LINE
  8
0
 10
75
 20
0
 11
76.9134
 21
0.3806
  0
LINE
  8
0
 10
6
 20
12.5
 11
6
 21
18.5
  0
LINE
  8
0
 10
6
 20
18.5
 11
74
 21
18.5
  0
LINE
  8
0
 10
74
 20
18.5
 11
74
 21
12.5
  0
LINE
  8
0
 10
74
 20
12.5
 11
6
 21
12.5
  0
ENDSEC
  0
SECTION
  2
OBJECTS
  0
DICTIONARY
  0
ENDSEC
  0
EOF
