  0
SECTION
  2
BLOCKS
  0
ENDSEC
  0
SECTION
  2
ENTITIES
  0
LINE
  8
0
 10
119
 20
121.37
 11
118.619
 21
123.284
  0
LINE
  8
0
 10
118.619
 20
123.284
 11
117.536
 21
124.906
  0
LINE
  8
0
 10
117.536
 20
124.906
 11
115.913
 21
125.99
  0
LINE
  8
0
 10
115.913
 20
125.99
 11
114
 21
126.37
  0
LINE
  8
0
 10
114
 20
126.37
 11
11
 21
126.37
  0
LINE
  8
0
 10
11
 20
126.37
 11
9.08658
 21
125.99
  0
LINE
  8
0
 10
9.08658
 20
125.99
 11
7.46446
 21
124.906
  0
LINE
  8
0
 10
7.46446
 20
124.906
 11
6.3806
 21
123.284
  0
LINE
  8
0
 10
6.3806
 20
123.284
 11
6
 21
121.37
  0
LINE
  8
0
 10
6
 20
121.37
 11
6
 21
81
  0
LINE
  8
0
 10
6
 20
81
 11
119
 21
81
  0
LINE
  8
0
 10
119
 20
81
 11
119
 21
121.37
  0
LINE
  8
0
 10
121.913
 20
0.3806
 11
123.536
 21
1.46446
  0
LINE
  8
0
 10
123.536
 20
1.46446
 11
124.619
 21
3.08658
  0
LINE
  8
0
 10
124.619
 20
3.08658
 11
125
 21
5
  0
LINE
  8
0
 10
125
 20
5
 11
125
 21
75
  0
LINE
  8
0
 10
125
 20
75
 11
124.619
 21
76.9134
  0
LINE
  8
0
 10
124.619
 20
76.9134
 11
123.536
 21
78.5355
  0
LINE
  8
0
 10
123.536
 20
78.5355
 11
121.913
 21
79.6194
  0
LINE
  8
0
 10
121.913
 20
79.6194
 11
120
 21
80
  0
LINE
  8
0
 10
120
 20
80
 11
5
 21
80
  0
LINE
  8
0
 10
5
 20
80
 11
3.08658
 21
79.6194
  0
LINE
  8
0
 10
3.08658
 20
79.6194
 11
1.46446
 21
78.5355
  0
LINE
  8
0
 10
1.46446
 20
78.5355
 11
0.3806
 21
76.9134
  0
LINE
  8
0
 10
0.3806
 20
76.9134
 11
0
 21
75
  0
LINE
  8
0
 10
0
 20
75
 11
0
 21
5
  0
LINE
  8
0
 10
0
 20
5
 11
0.3806
 21
3.08658
  0
LINE
  8
0
 10
0.3806
 20
3.08658
 11
1.46446
 21
1.46446
  0
LINE
  8
0
 10
1.46446
 20
1.46446
 11
3.08658
 21
0.3806
  0
LINE
  8
0
 10
3.08658
 20
0.3806
 11
5
 21
0
  0
LINE
  8
0
 10
5
 20
0
 11
120
 21
0
  0
LINE
  8
0
 10
120
 20
0
 11
121.913
 21
0.3806
  0
LINE
  8
0
 10
6
 20
8
 11
6
 21
14
  0
LINE
  8
0
 10
6
 20
14
 11
119
 21
14
  0
LINE
  8
0
 10
119
 20
14
 11
119
 21
8
  0
LINE
  8
0
 10
119
 20
8
 11
6
 21
8
  0
ENDSEC
  0
SECTION
  2
OBJECTS
  0
DICTIONARY
  0
ENDSEC
  0
EOF
