  0
SECTION
  2
BLOCKS
  0
ENDSEC
  0
SECTION
  2
ENTITIES
  0
LINE
  8
0
 10
204
 20
461.437
 11
203.619
 21
463.35
  0
LINE
  8
0
 10
203.619
 20
463.35
 11
202.536
 21
464.973
  0
LINE
  8
0
 10
202.536
 20
464.973
 11
200.913
 21
466.056
  0
LINE
  8
0
 10
200.913
 20
466.056
 11
199
 21
466.437
  0
LINE
  8
0
 10
199
 20
466.437
 11
11
 21
466.437
  0
LINE
  8
0
 10
11
 20
466.437
 11
9.08658
 21
466.056
  0
LINE
  8
0
 10
9.08658
 20
466.056
 11
7.46446
 21
464.973
  0
LINE
  8
0
 10
7.46446
 20
464.973
 11
6.3806
 21
463.35
  0
LINE
  8
0
 10
6.3806
 20
463.35
 11
6
 21
461.437
  0
LINE
  8
0
 10
6
 20
461.437
 11
6
 21
298
  0
LINE
  8
0
 10
6
 20
298
 11
204
 21
298
  0
LINE
  8
0
 10
204
 20
298
 11
204
 21
461.437
  0
LINE
  8
0
 10
206.913
 20
0.3806
 11
208.536
 21
1.46446
  0
LINE
  8
0
 10
208.536
 20
1.46446
 11
209.619
 21
3.08658
  0
LINE
  8
0
 10
209.619
 20
3.08658
 11
210
 21
5
  0
LINE
  8
0
 10
210
 20
5
 11
210
 21
292
  0
LINE
  8
0
 10
210
 20
292
 11
209.619
 21
293.913
  0
LINE
  8
0
 10
209.619
 20
293.913
 11
208.536
 21
295.536
  0
LINE
  8
0
 10
208.536
 20
295.536
 11
206.913
 21
296.619
  0
LINE
  8
0
 10
206.913
 20
296.619
 11
205
 21
297
  0
LINE
  8
0
 10
205
 20
297
 11
5
 21
297
  0
LINE
  8
0
 10
5
 20
297
 11
3.08658
 21
296.619
  0
LINE
  8
0
 10
3.08658
 20
296.619
 11
1.46446
 21
295.536
  0
LINE
  8
0
 10
1.46446
 20
295.536
 11
0.3806
 21
293.913
  0
LINE
  8
0
 10
0.3806
 20
293.913
 11
0
 21
292
  0
LINE
  8
0
 10
0
 20
292
 11
0
 21
5
  0
LINE
  8
0
 10
0
 20
5
 11
0.3806
 21
3.08658
  0
LINE
  8
0
 10
0.3806
 20
3.08658
 11
1.46446
 21
1.46446
  0
LINE
  8
0
 10
1.46446
 20
1.46446
 11
3.08658
 21
0.3806
  0
LINE
  8
0
 10
3.08658
 20
0.3806
 11
5
 21
0
  0
LINE
  8
0
 10
5
 20
0
 11
205
 21
0
  0
LINE
  8
0
 10
205
 20
0
 11
206.913
 21
0.3806
  0
LINE
  8
0
 10
6
 20
29.7
 11
6
 21
35.7
  0
LINE
  8
0
 10
6
 20
35.7
 11
204
 21
35.7
  0
LINE
  8
0
 10
204
 20
35.7
 11
204
 21
29.7
  0
LINE
  8
0
 10
204
 20
29.7
 11
6
 21
29.7
  0
ENDSEC
  0
SECTION
  2
OBJECTS
  0
DICTIONARY
  0
ENDSEC
  0
EOF
