  0
SECTION
  2
BLOCKS
  0
ENDSEC
  0
SECTION
  2
ENTITIES
  0
LINE
  8
0
 10
294
 20
199.727
 11
293.619
 21
201.64
  0
LINE
  8
0
 10
293.619
 20
201.64
 11
292.536
 21
203.262
  0
LINE
  8
0
 10
292.536
 20
203.262
 11
290.913
 21
204.346
  0
LINE
  8
0
 10
290.913
 20
204.346
 11
289
 21
204.727
  0
LINE
  8
0
 10
289
 20
204.727
 11
11
 21
204.727
  0
LINE
  8
0
 10
11
 20
204.727
 11
9.08658
 21
204.346
  0
LINE
  8
0
 10
9.08658
 20
204.346
 11
7.46446
 21
203.262
  0
LINE
  8
0
 10
7.46446
 20
203.262
 11
6.3806
 21
201.64
  0
LINE
  8
0
 10
6.3806
 20
201.64
 11
6
 21
199.727
  0
LINE
  8
0
 10
6
 20
199.727
 11
6
 21
131
  0
LINE
  8
0
 10
6
 20
131
 11
294
 21
131
  0
LINE
  8
0
 10
294
 20
131
 11
294
 21
199.727
  0
LINE
  8
0
 10
296.913
 20
0.3806
 11
298.536
 21
1.46446
  0
LINE
  8
0
 10
298.536
 20
1.46446
 11
299.619
 21
3.08658
  0
LINE
  8
0
 10
299.619
 20
3.08658
 11
300
 21
5
  0
LINE
  8
0
 10
300
 20
5
 11
300
 21
125
  0
LINE
  8
0
 10
300
 20
125
 11
299.619
 21
126.913
  0
LINE
  8
0
 10
299.619
 20
126.913
 11
298.536
 21
128.536
  0
LINE
  8
0
 10
298.536
 20
128.536
 11
296.913
 21
129.619
  0
LINE
  8
0
 10
296.913
 20
129.619
 11
295
 21
130
  0
LINE
  8
0
 10
295
 20
130
 11
5
 21
130
  0
LINE
  8
0
 10
5
 20
130
 11
3.08658
 21
129.619
  0
LINE
  8
0
 10
3.08658
 20
129.619
 11
1.46446
 21
128.536
  0
LINE
  8
0
 10
1.46446
 20
128.536
 11
0.3806
 21
126.913
  0
LINE
  8
0
 10
0.3806
 20
126.913
 11
0
 21
125
  0
LINE
  8
0
 10
0
 20
125
 11
0
 21
5
  0
LINE
  8
0
 10
0
 20
5
 11
0.3806
 21
3.08658
  0
LINE
  8
0
 10
0.3806
 20
3.08658
 11
1.46446
 21
1.46446
  0
LINE
  8
0
 10
1.46446
 20
1.46446
 11
3.08658
 21
0.3806
  0
LINE
  8
0
 10
3.08658
 20
0.3806
 11
5
 21
0
  0
LINE
  8
0
 10
5
 20
0
 11
295
 21
0
  0
LINE
  8
0
 10
295
 20
0
 11
296.913
 21
0.3806
  0
LINE
  8
0
 10
6
 20
13
 11
6
 21
19
  0
LINE
  8
0
 10
6
 20
19
 11
294
 21
19
  0
LINE
  8
0
 10
294
 20
19
 11
294
 21
13
  0
LINE
  8
0
 10
294
 20
13
 11
6
 21
13
  0
ENDSEC
  0
SECTION
  2
OBJECTS
  0
DICTIONARY
  0
ENDSEC
  0
EOF
