<?xml version="1.0" standalone="no"?>
<!DOCTYPE svg PUBLIC "-//W3C//DTD SVG 1.1//EN" "http://www.w3.org/Graphics/SVG/1.1/DTD/svg11.dtd">
<svg width="210mm" height="467mm" viewBox="0 -467 210 467" xmlns="http://www.w3.org/2000/svg" version="1.1">
<title>OpenSCAD Model</title>
<path d="
M 204,-461.437 L 203.619,-463.35 L 202.536,-464.973 L 200.913,-466.056 L 199,-466.437 L 11,-466.437
 L 9.08658,-466.056 L 7.46446,-464.973 L 6.3806,-463.35 L 6,-461.437 L 6,-298 L 204,-298
 z
M 206.913,-0.3806 L 208.536,-1.46446 L 209.619,-3.08658 L 210,-5 L 210,-292 L 209.619,-293.913
 L 208.536,-295.536 L 206.913,-296.619 L 205,-297 L 5,-297 L 3.08658,-296.619 L 1.46446,-295.536
 L 0.3806,-293.913 L 0,-292 L 0,-5 L 0.3806,-3.08658 L 1.46446,-1.46446 L 3.08658,-0.3806
 L 5,-0 L 205,-0 z
M 6,-29.7 L 6,-35.7 L 204,-35.7 L 204,-29.7 z
" stroke="black" fill="lightgray" stroke-width="0.5"/>
</svg>
