<?xml version="1.0" standalone="no"?>
<!DOCTYPE svg PUBLIC "-//W3C//DTD SVG 1.1//EN" "http://www.w3.org/Graphics/SVG/1.1/DTD/svg11.dtd">
<svg width="297mm" height="331mm" viewBox="0 -331 297 331" xmlns="http://www.w3.org/2000/svg" version="1.1">
<title>OpenSCAD Model</title>
<path d="
M 291,-325.097 L 290.619,-327.01 L 289.536,-328.632 L 287.913,-329.716 L 286,-330.097 L 11,-330.097
 L 9.08658,-329.716 L 7.46446,-328.632 L 6.3806,-327.01 L 6,-325.097 L 6,-211 L 291,-211
 z
M 293.913,-0.3806 L 295.536,-1.46446 L 296.619,-3.08658 L 297,-5 L 297,-205 L 296.619,-206.913
 L 295.536,-208.536 L 293.913,-209.619 L 292,-210 L 5,-210 L 3.08658,-209.619 L 1.46446,-208.536
 L 0.3806,-206.913 L 0,-205 L 0,-5 L 0.3806,-3.08658 L 1.46446,-1.46446 L 3.08658,-0.3806
 L 5,-0 L 292,-0 z
M 6,-21 L 6,-27 L 291,-27 L 291,-21 z
" stroke="black" fill="lightgray" stroke-width="0.5"/>
</svg>
